<mxfile host="app.diagrams.net" modified="2023-08-17T08:40:40.238Z" agent="Mozilla/5.0 (Macintosh; Intel Mac OS X 10_15_7) AppleWebKit/537.36 (KHTML, like Gecko) Chrome/115.0.0.0 Safari/537.36" etag="q90KyQmaip9h6JgsQRP3" version="21.6.6" type="github">
  <diagram name="第 1 页" id="SUd_A5kPVJvfkjwUQ2Qv">
    <mxGraphModel dx="1403" dy="1081" grid="1" gridSize="10" guides="1" tooltips="1" connect="1" arrows="1" fold="1" page="1" pageScale="1" pageWidth="850" pageHeight="1100" math="0" shadow="0">
      <root>
        <mxCell id="0" />
        <mxCell id="1" parent="0" />
        <mxCell id="lbtEtIyEJ65vKywW1Y3Z-1" value="" style="rounded=0;whiteSpace=wrap;html=1;" vertex="1" parent="1">
          <mxGeometry x="50" y="100" width="1170" height="1340" as="geometry" />
        </mxCell>
        <mxCell id="lbtEtIyEJ65vKywW1Y3Z-2" value="" style="rounded=0;whiteSpace=wrap;html=1;" vertex="1" parent="1">
          <mxGeometry x="65" y="116" width="570" height="400" as="geometry" />
        </mxCell>
        <mxCell id="lbtEtIyEJ65vKywW1Y3Z-3" value="" style="rounded=0;whiteSpace=wrap;html=1;" vertex="1" parent="1">
          <mxGeometry x="635" y="116" width="570" height="400" as="geometry" />
        </mxCell>
        <mxCell id="lbtEtIyEJ65vKywW1Y3Z-4" value="核保风险" style="ellipse;whiteSpace=wrap;html=1;aspect=fixed;" vertex="1" parent="1">
          <mxGeometry x="165" y="206" width="200" height="200" as="geometry" />
        </mxCell>
        <mxCell id="lbtEtIyEJ65vKywW1Y3Z-5" value="理赔风险" style="ellipse;whiteSpace=wrap;html=1;aspect=fixed;" vertex="1" parent="1">
          <mxGeometry x="725" y="206" width="200" height="200" as="geometry" />
        </mxCell>
        <mxCell id="lbtEtIyEJ65vKywW1Y3Z-10" value="" style="shape=table;startSize=0;container=1;collapsible=0;childLayout=tableLayout;fontSize=16;" vertex="1" parent="1">
          <mxGeometry x="395" y="216" width="230" height="120" as="geometry" />
        </mxCell>
        <mxCell id="lbtEtIyEJ65vKywW1Y3Z-11" value="" style="shape=tableRow;horizontal=0;startSize=0;swimlaneHead=0;swimlaneBody=0;strokeColor=inherit;top=0;left=0;bottom=0;right=0;collapsible=0;dropTarget=0;fillColor=none;points=[[0,0.5],[1,0.5]];portConstraint=eastwest;fontSize=16;" vertex="1" parent="lbtEtIyEJ65vKywW1Y3Z-10">
          <mxGeometry width="230" height="40" as="geometry" />
        </mxCell>
        <mxCell id="lbtEtIyEJ65vKywW1Y3Z-12" value="" style="shape=partialRectangle;html=1;whiteSpace=wrap;connectable=0;strokeColor=inherit;overflow=hidden;fillColor=none;top=0;left=0;bottom=0;right=0;pointerEvents=1;fontSize=16;" vertex="1" parent="lbtEtIyEJ65vKywW1Y3Z-11">
          <mxGeometry width="60" height="40" as="geometry">
            <mxRectangle width="60" height="40" as="alternateBounds" />
          </mxGeometry>
        </mxCell>
        <mxCell id="lbtEtIyEJ65vKywW1Y3Z-13" value="" style="shape=partialRectangle;html=1;whiteSpace=wrap;connectable=0;strokeColor=inherit;overflow=hidden;fillColor=none;top=0;left=0;bottom=0;right=0;pointerEvents=1;fontSize=16;" vertex="1" parent="lbtEtIyEJ65vKywW1Y3Z-11">
          <mxGeometry x="60" width="170" height="40" as="geometry">
            <mxRectangle width="170" height="40" as="alternateBounds" />
          </mxGeometry>
        </mxCell>
        <mxCell id="lbtEtIyEJ65vKywW1Y3Z-15" value="" style="shape=tableRow;horizontal=0;startSize=0;swimlaneHead=0;swimlaneBody=0;strokeColor=inherit;top=0;left=0;bottom=0;right=0;collapsible=0;dropTarget=0;fillColor=none;points=[[0,0.5],[1,0.5]];portConstraint=eastwest;fontSize=16;" vertex="1" parent="lbtEtIyEJ65vKywW1Y3Z-10">
          <mxGeometry y="40" width="230" height="40" as="geometry" />
        </mxCell>
        <mxCell id="lbtEtIyEJ65vKywW1Y3Z-16" value="" style="shape=partialRectangle;html=1;whiteSpace=wrap;connectable=0;strokeColor=inherit;overflow=hidden;fillColor=none;top=0;left=0;bottom=0;right=0;pointerEvents=1;fontSize=16;" vertex="1" parent="lbtEtIyEJ65vKywW1Y3Z-15">
          <mxGeometry width="60" height="40" as="geometry">
            <mxRectangle width="60" height="40" as="alternateBounds" />
          </mxGeometry>
        </mxCell>
        <mxCell id="lbtEtIyEJ65vKywW1Y3Z-17" value="" style="shape=partialRectangle;html=1;whiteSpace=wrap;connectable=0;strokeColor=inherit;overflow=hidden;fillColor=none;top=0;left=0;bottom=0;right=0;pointerEvents=1;fontSize=16;" vertex="1" parent="lbtEtIyEJ65vKywW1Y3Z-15">
          <mxGeometry x="60" width="170" height="40" as="geometry">
            <mxRectangle width="170" height="40" as="alternateBounds" />
          </mxGeometry>
        </mxCell>
        <mxCell id="lbtEtIyEJ65vKywW1Y3Z-19" value="" style="shape=tableRow;horizontal=0;startSize=0;swimlaneHead=0;swimlaneBody=0;strokeColor=inherit;top=0;left=0;bottom=0;right=0;collapsible=0;dropTarget=0;fillColor=none;points=[[0,0.5],[1,0.5]];portConstraint=eastwest;fontSize=16;" vertex="1" parent="lbtEtIyEJ65vKywW1Y3Z-10">
          <mxGeometry y="80" width="230" height="40" as="geometry" />
        </mxCell>
        <mxCell id="lbtEtIyEJ65vKywW1Y3Z-20" value="" style="shape=partialRectangle;html=1;whiteSpace=wrap;connectable=0;strokeColor=inherit;overflow=hidden;fillColor=none;top=0;left=0;bottom=0;right=0;pointerEvents=1;fontSize=16;" vertex="1" parent="lbtEtIyEJ65vKywW1Y3Z-19">
          <mxGeometry width="60" height="40" as="geometry">
            <mxRectangle width="60" height="40" as="alternateBounds" />
          </mxGeometry>
        </mxCell>
        <mxCell id="lbtEtIyEJ65vKywW1Y3Z-21" value="" style="shape=partialRectangle;html=1;whiteSpace=wrap;connectable=0;strokeColor=inherit;overflow=hidden;fillColor=none;top=0;left=0;bottom=0;right=0;pointerEvents=1;fontSize=16;" vertex="1" parent="lbtEtIyEJ65vKywW1Y3Z-19">
          <mxGeometry x="60" width="170" height="40" as="geometry">
            <mxRectangle width="170" height="40" as="alternateBounds" />
          </mxGeometry>
        </mxCell>
        <mxCell id="lbtEtIyEJ65vKywW1Y3Z-23" value="" style="shape=table;startSize=0;container=1;collapsible=0;childLayout=tableLayout;fontSize=16;" vertex="1" parent="1">
          <mxGeometry x="955" y="216" width="240" height="120" as="geometry" />
        </mxCell>
        <mxCell id="lbtEtIyEJ65vKywW1Y3Z-24" value="" style="shape=tableRow;horizontal=0;startSize=0;swimlaneHead=0;swimlaneBody=0;strokeColor=inherit;top=0;left=0;bottom=0;right=0;collapsible=0;dropTarget=0;fillColor=none;points=[[0,0.5],[1,0.5]];portConstraint=eastwest;fontSize=16;" vertex="1" parent="lbtEtIyEJ65vKywW1Y3Z-23">
          <mxGeometry width="240" height="40" as="geometry" />
        </mxCell>
        <mxCell id="lbtEtIyEJ65vKywW1Y3Z-25" value="" style="shape=partialRectangle;html=1;whiteSpace=wrap;connectable=0;strokeColor=inherit;overflow=hidden;fillColor=none;top=0;left=0;bottom=0;right=0;pointerEvents=1;fontSize=16;" vertex="1" parent="lbtEtIyEJ65vKywW1Y3Z-24">
          <mxGeometry width="60" height="40" as="geometry">
            <mxRectangle width="60" height="40" as="alternateBounds" />
          </mxGeometry>
        </mxCell>
        <mxCell id="lbtEtIyEJ65vKywW1Y3Z-26" value="" style="shape=partialRectangle;html=1;whiteSpace=wrap;connectable=0;strokeColor=inherit;overflow=hidden;fillColor=none;top=0;left=0;bottom=0;right=0;pointerEvents=1;fontSize=16;" vertex="1" parent="lbtEtIyEJ65vKywW1Y3Z-24">
          <mxGeometry x="60" width="180" height="40" as="geometry">
            <mxRectangle width="180" height="40" as="alternateBounds" />
          </mxGeometry>
        </mxCell>
        <mxCell id="lbtEtIyEJ65vKywW1Y3Z-28" value="" style="shape=tableRow;horizontal=0;startSize=0;swimlaneHead=0;swimlaneBody=0;strokeColor=inherit;top=0;left=0;bottom=0;right=0;collapsible=0;dropTarget=0;fillColor=none;points=[[0,0.5],[1,0.5]];portConstraint=eastwest;fontSize=16;" vertex="1" parent="lbtEtIyEJ65vKywW1Y3Z-23">
          <mxGeometry y="40" width="240" height="40" as="geometry" />
        </mxCell>
        <mxCell id="lbtEtIyEJ65vKywW1Y3Z-29" value="" style="shape=partialRectangle;html=1;whiteSpace=wrap;connectable=0;strokeColor=inherit;overflow=hidden;fillColor=none;top=0;left=0;bottom=0;right=0;pointerEvents=1;fontSize=16;" vertex="1" parent="lbtEtIyEJ65vKywW1Y3Z-28">
          <mxGeometry width="60" height="40" as="geometry">
            <mxRectangle width="60" height="40" as="alternateBounds" />
          </mxGeometry>
        </mxCell>
        <mxCell id="lbtEtIyEJ65vKywW1Y3Z-30" value="" style="shape=partialRectangle;html=1;whiteSpace=wrap;connectable=0;strokeColor=inherit;overflow=hidden;fillColor=none;top=0;left=0;bottom=0;right=0;pointerEvents=1;fontSize=16;" vertex="1" parent="lbtEtIyEJ65vKywW1Y3Z-28">
          <mxGeometry x="60" width="180" height="40" as="geometry">
            <mxRectangle width="180" height="40" as="alternateBounds" />
          </mxGeometry>
        </mxCell>
        <mxCell id="lbtEtIyEJ65vKywW1Y3Z-32" value="" style="shape=tableRow;horizontal=0;startSize=0;swimlaneHead=0;swimlaneBody=0;strokeColor=inherit;top=0;left=0;bottom=0;right=0;collapsible=0;dropTarget=0;fillColor=none;points=[[0,0.5],[1,0.5]];portConstraint=eastwest;fontSize=16;" vertex="1" parent="lbtEtIyEJ65vKywW1Y3Z-23">
          <mxGeometry y="80" width="240" height="40" as="geometry" />
        </mxCell>
        <mxCell id="lbtEtIyEJ65vKywW1Y3Z-33" value="" style="shape=partialRectangle;html=1;whiteSpace=wrap;connectable=0;strokeColor=inherit;overflow=hidden;fillColor=none;top=0;left=0;bottom=0;right=0;pointerEvents=1;fontSize=16;" vertex="1" parent="lbtEtIyEJ65vKywW1Y3Z-32">
          <mxGeometry width="60" height="40" as="geometry">
            <mxRectangle width="60" height="40" as="alternateBounds" />
          </mxGeometry>
        </mxCell>
        <mxCell id="lbtEtIyEJ65vKywW1Y3Z-34" value="" style="shape=partialRectangle;html=1;whiteSpace=wrap;connectable=0;strokeColor=inherit;overflow=hidden;fillColor=none;top=0;left=0;bottom=0;right=0;pointerEvents=1;fontSize=16;" vertex="1" parent="lbtEtIyEJ65vKywW1Y3Z-32">
          <mxGeometry x="60" width="180" height="40" as="geometry">
            <mxRectangle width="180" height="40" as="alternateBounds" />
          </mxGeometry>
        </mxCell>
        <mxCell id="lbtEtIyEJ65vKywW1Y3Z-36" value="" style="rounded=0;whiteSpace=wrap;html=1;" vertex="1" parent="1">
          <mxGeometry x="65" y="536" width="1140" height="440" as="geometry" />
        </mxCell>
        <mxCell id="lbtEtIyEJ65vKywW1Y3Z-37" value="图谱界面" style="rounded=0;whiteSpace=wrap;html=1;" vertex="1" parent="1">
          <mxGeometry x="65" y="536" width="830" height="440" as="geometry" />
        </mxCell>
        <mxCell id="lbtEtIyEJ65vKywW1Y3Z-38" value="汇总界面" style="rounded=0;whiteSpace=wrap;html=1;" vertex="1" parent="1">
          <mxGeometry x="895" y="536" width="310" height="440" as="geometry" />
        </mxCell>
        <mxCell id="lbtEtIyEJ65vKywW1Y3Z-40" value="汇总界面" style="rounded=0;whiteSpace=wrap;html=1;" vertex="1" parent="1">
          <mxGeometry x="65" y="990" width="1140" height="440" as="geometry" />
        </mxCell>
        <mxCell id="lbtEtIyEJ65vKywW1Y3Z-41" value="投保人" style="rounded=0;whiteSpace=wrap;html=1;" vertex="1" parent="1">
          <mxGeometry x="65" y="990" width="375" height="440" as="geometry" />
        </mxCell>
        <mxCell id="lbtEtIyEJ65vKywW1Y3Z-42" value="被保人" style="rounded=0;whiteSpace=wrap;html=1;" vertex="1" parent="1">
          <mxGeometry x="440" y="990" width="400" height="440" as="geometry" />
        </mxCell>
        <mxCell id="lbtEtIyEJ65vKywW1Y3Z-43" value="代理人" style="rounded=0;whiteSpace=wrap;html=1;" vertex="1" parent="1">
          <mxGeometry x="840" y="990" width="365" height="440" as="geometry" />
        </mxCell>
      </root>
    </mxGraphModel>
  </diagram>
</mxfile>
